<?xml version="1.0" standalone="no"?>
<!DOCTYPE svg PUBLIC "-//W3C//DTD SVG 20010904//EN"
 "http://www.w3.org/TR/2001/REC-SVG-20010904/DTD/svg10.dtd">
<svg version="1.0" xmlns="http://www.w3.org/2000/svg"
 width="192.000000pt" height="192.000000pt" viewBox="0 0 192.000000 192.000000"
 preserveAspectRatio="xMidYMid meet">

<g transform="translate(0.000000,192.000000) scale(0.100000,-0.100000)"
fill="#000000" stroke="none">
<path d="M1328 1909 c-45 -10 -160 -67 -206 -102 -18 -14 -220 -243 -449 -509
-485 -565 -478 -554 -478 -718 0 -102 1 -107 32 -156 52 -80 145 -139 274
-171 73 -19 76 -19 192 0 161 26 198 20 257 -42 25 -26 57 -65 72 -88 36 -53
106 -99 175 -114 73 -17 164 -1 252 43 55 28 71 42 98 87 43 71 51 118 62 361
11 229 25 297 67 325 31 20 54 71 54 120 0 26 -8 44 -31 68 -71 74 -84 144
-76 413 7 219 1 276 -36 358 -51 111 -139 154 -259 125z m1 -375 c20 -26 21
-38 21 -321 l0 -294 58 1 c85 2 92 1 92 -15 0 -9 -14 -17 -37 -21 -21 -3 -51
-9 -68 -13 l-30 -7 0 -284 0 -284 -34 -23 c-45 -31 -107 -31 -152 0 l-34 23
-3 262 -2 262 -43 -6 c-203 -31 -380 -114 -510 -238 -63 -60 -86 -67 -137 -41
-58 30 -46 56 119 252 499 594 625 740 654 756 46 25 82 22 106 -9z"/>
<path d="M1013 1063 c-73 -82 -128 -151 -124 -156 6 -6 251 10 259 18 6 5 7
285 2 285 -3 0 -65 -66 -137 -147z"/>
</g>
</svg>
